<svg version="1.1" id="Layer_1" xmlns="http://www.w3.org/2000/svg" xmlns:xlink="http://www.w3.org/1999/xlink" x="0px" y="0px" viewBox="-192.8 -17.9 507.4 146.6" style="enable-background:new -192.8 -17.9 507.4 146.6;" xml:space="preserve">
 <style type="text/css">
  .st0{fill:#FFFFFF;}
	.st1{fill:url(#SVGID_1_);}
 </style>
 <g>
  <g>
   <path class="st0" d="M-70,81.5l0.3,0c2.4,0.3,4.8,0.8,6.7,1.6c1.7,0.7,2.7,1.7,3.6,3.4c1.4,2.5,1.5,6.1,0.2,8.9
			c-0.9,2-3,3.7-4.9,4.6c-1.9,0.9-4,1.4-6.1,1.6c-3.9,0.4-7.9-0.3-11.4-2c-2-1-4.5-2.7-5.8-4.9c-1-1.6-0.9-3.7,0.2-5.3
			c1.8-2.5,5.6-3,8.5-2.9c2.2,0.1,6.2,0.8,8.3,1.5c0.6,0.2,2.7,1,3.1,1.4c0.3,0.3,0.4,0.6,0.3,1c-0.5,1.5-4,2.2-5.1,2.4
			c-2.8,0.4-4.2-0.6-7.3-1.9c-0.8-0.3-1.7-0.6-2.6-0.7c-1.4-0.1-3.1,0.3-3.4,1.8c-0.1,0.8,0.8,1.5,1.5,1.9c1.5,0.7,3.1,1,4.7,1
			c4.9,0.1,10.4-0.7,14.3-3.5c0.5-0.4,1.1-1,1.1-1.7c0-1.4-2.5-2.3-2.5-2.3c-2.7-1.1-7.7-1.7-10.2-1.9c-2.7-0.2-6.9-0.6-7.9-0.7
			c-1.1-0.1-2.1-0.4-3.1-0.8c-1-0.5-1.7-1.3-2.1-2.3c-0.5-1.8,0.1-4.1,1.1-5.5c2.7-3.8,8.9-5.3,13.6-5.9c4.5-0.6,11.8-0.6,16.3,1.8
			c0.7,0.4,1,0.7,0.9,1.4c-0.3,1.4-1.3,2.3-2.6,2.6c-1.3,0.4-4,0.6-5.2,0.7c-5.3,0.3-11.8,0.1-16.9,1.5c-0.4,0.1-1.1,0.3-1.3,0.5
			c-0.8,0.9,1.5,1.1,2,1.2c0.1,0,0.2,0,0.3,0.1L-70,81.5C-70,81.5-70,81.5-70,81.5z M-101.8,57.7c0,0,0.9-1.3,1.6-2.3
			c1.7-2.1,3.5-4.1,5.5-5.8c0.5-0.5,1.2-1,1.2-1s-1,0.1-1.6,0.2c-1.4,0.3-3.4,1.6-4.4,2.5c-1.7,1.4-3.5,3.7-2.7,5.8
			C-102,57.3-101.8,57.7-101.8,57.7L-101.8,57.7z M-92.6,60.2c2.6-0.2,5.1-0.9,7.4-2.2c2.2-1.2,5.5-3.7,5.2-6.6
			c-0.1-0.9-0.7-1.6-1.5-2c-1-0.4-1.5-0.4-2.8,0c-0.8,0.2-1.5,0.5-2.2,0.9c-2.6,1.5-6.2,4.7-8.2,7.2c-0.5,0.6-0.9,1.3-1.3,1.7
			c-0.2,0.3-0.4,0.5-0.4,0.6C-96.3,60.3-93.6,60.2-92.6,60.2L-92.6,60.2L-92.6,60.2z M-99.3,65.1c-0.3,0.3-0.6,1-0.9,1.5
			c-0.2,0.3-0.4,0.5-0.6,0.7c-0.7,0.5-1.3,0.5-1.9-0.1c-0.9-0.9-1.5-2-1.5-3.3c0-0.5,0.1-1.1,0-1.6c-0.2-0.8-0.9-1.5-1.3-2.3
			c-0.5-1-0.8-2.2-0.9-3.3c-0.2-3,1.4-5.8,3.5-8c2.2-2.3,4.8-4.1,7.8-5.3c2.8-1.2,6.9-2,10-0.9c1.2,0.4,2.3,1.1,3.1,2.1
			c0.1,0.2,0.3,0.3,0.4,0.5c0.2,0.1,0.5,0.2,0.8,0.2c1.1,0.2,2.1,0.7,3,1.4c1.2,1,1.8,1.9,2.1,3.3c0.6,2.8-1,5.8-2.8,7.7
			c-3.1,3.2-6.2,5.5-10.2,7c-1.8,0.7-4.5,1.3-6.5,1.1c-0.6-0.1-1.3-0.2-1.9-0.3c-0.5-0.1-1.1-0.2-1.6-0.4
			C-99,65.1-99.2,65-99.3,65.1C-99.3,65-99.3,65.1-99.3,65.1z M-95.7,71.2c0.2,0,0.3,0.1,0.5,0.1c1.4,0.5,2,1.8,2.3,3.3
			c0.8,3.3,1.1,10.6,1.3,13.5c0.1,2.1,0.1,4.3,0.2,6.4c0.1,1.8,0.2,4.2-0.2,5.9c-0.1,0.7-0.6,1.3-1.1,1.7c-0.7,0.4-2.2,0.5-3,0.3
			c-2.1-0.4-2.7-1.7-3-3.8c-0.7-4.8-0.4-14.3,0.1-18.4c0.1-1.3,0.6-5.6,1.3-7.3C-97.1,72.3-96.6,71.1-95.7,71.2L-95.7,71.2
			L-95.7,71.2z M-158.3,79.3c0,0-3.1,0.2-5.2,0.4c-2.7,0.3-7.7,1.2-10.6,2.2c-0.9,0.3-2.6,1-2.8,1.9c-0.2,0.9,0.4,1.6,1.1,2.4
			c0.4,0.4,2.5,2.4,3.1,2.9c2.5,2.1,7.5,5.2,11.2,6.8c1.3,0.5,3.4,1.3,3.4,1.3s-0.2-6-0.1-11.8C-158.3,82.4-158.3,79.3-158.3,79.3
			C-158.3,79.3-158.3,79.3-158.3,79.3z M-102.1,81.6c0.2,1.6-0.2,4.6-0.3,5c-0.2,1.1-0.5,2.2-0.9,3.3c-0.5,1.2-1.1,2.3-1.7,3.4
			c-1.3,2.2-2.9,4.1-4.8,5.9c-5.3,4.5-13.4,7.1-20.4,8c-5.1,0.6-10.2,0.5-15.2-0.4c-1.7-0.3-4.3-0.9-4.3-0.9s0,1-0.1,1.8
			c-0.1,0.5-0.2,1-0.4,1.5c-0.3,0.7-1,1.2-1.8,1.3c-1.1,0.2-2.2,0.3-3.1-0.2c-1.6-0.7-2.2-2.2-2.5-3.9c-0.2-1.4-0.5-3.8-0.5-3.8
			s-1.2-0.6-2.2-1.1c-3-1.5-5.8-3.2-8.5-5.2c-0.7-0.5-3.7-3.1-4.4-3.7c-1.9-1.8-3.6-3.6-4.9-5.8c-1-1.8-1.3-3.3-0.5-5.2
			c1-2.6,4.8-4.6,7.4-5.7c1.9-0.8,7.8-2.7,10.2-3.1c1.2-0.2,2.9-0.5,3-0.6c0,0,0.1-0.1,0.1-0.1c0.1-0.1,0.1-2.7,0.1-3.6
			c0-0.9,0.7-7.1,0.9-8.3c0.1-0.7,0.6-3.4,1.2-4.1c0.4-0.5,1-0.4,1.5-0.1c2.8,1.7,3.6,7.8,3.9,10.8c0.1,1.9,0.2,4.7,0.2,4.7
			s3.2-0.1,5.2,0c2,0.1,4,0.3,6,0.7c2.6,0.4,7.5,1.5,10.4,2.9c2.3,1.2,4.5,3.2,5.3,5.3c0.7,1.9,0.6,3.3-0.4,5
			c-1.1,2-3.3,3.4-5.5,3.6c-0.6,0-3.1-0.3-3.8-0.9c-0.3-0.2-0.3-0.6-0.1-0.9c0.6-0.4,1.2-0.7,1.9-1.1c0.3-0.2,0.6-0.4,0.9-0.6
			c0.6-0.5,1.1-1,1-1.7c-0.1-0.8-1-1.3-1.8-1.6c-3.9-1.5-11.7-2.8-15.4-3c-1.5-0.1-3.6-0.2-3.6-0.2l0.4,20.7c0,0,1.7,0.3,3.1,0.6
			c0.8,0.1,4.1,0.4,5,0.4c6.7,0.2,14.2-0.4,20.3-3.3c2.7-1.3,5.2-2.8,7.1-5c2.5-3,3.8-6.8,3.4-10.7c-0.4-4.4-3.5-9.7-6-12.8
			c-6.6-8.4-17.8-15.4-27.7-19.4c-10.1-4.1-20.1-6.5-30.8-6.9c-2.8-0.1-8.8,0-11.9,0.9c-0.4,0.1-0.9,0.3-1.3,0.4
			c-0.3,0.1-0.7,0.2-1,0.4c-0.1,0-0.1,0.1-0.1,0.1c0.1,0.1,0.2,0.1,0.4,0.2c0.3,0.1,1.7,0.2,2.4,0.3c0.6,0.1,1.3,0.5,1.5,0.9
			c0.3,0.5,0.3,0.8,0,1.1c-0.7,0.8-3.3,0.7-4.4,0.5c-1.1-0.2-2.7-0.6-2.9-1.6c-0.3-1.2,0.3-2.4,0.9-3.5c1.3-2.2,3.1-3.4,5.7-4.1
			c3.9-1,8-1.7,12-1.9c8-0.3,15.6,1.1,23.4,3.4c5,1.5,9.8,3.4,14.5,5.6c3.6,1.8,7.2,3.8,10.6,5.9c0.9,0.6,5.8,4.2,6.6,4.9
			c1.6,1.3,3.7,3.2,5.3,4.7c3,2.9,6.7,7.4,8.4,11c0.4,0.8,0.8,1.7,1.3,2.7c0.4,1,0.8,1.9,1.1,3c0.1,0.6,0.3,1.4,0.4,1.5
			C-102.5,79.2-102.1,81-102.1,81.6z M-1.4,77.1C-5.1,77.9-15,78.4-15,78.4l-1.2,3.9c0,0,4.9-0.4,8.5,0c0,0,1.2-0.1,1.3,1.3
			c0,0.9,0,1.9-0.1,2.8c0,0-0.1,0.9-1.3,1.1c-1.4,0.2-10.6,0.6-10.6,0.6l-1.5,5.1c0,0-0.6,1.2,0.7,0.8c1.2-0.3,10.9-2.1,12.1-1.9
			c1.4,0.3,2.9,2.1,2.4,3.8c-0.5,2-10.2,8.2-16.1,7.8c0,0-3.1,0.2-5.7-4c-2.4-4,0.9-11.5,0.9-11.5s-1.5-3.5-0.4-4.7
			c0,0,0.7-0.6,2.6-0.7l2.4-4.9c0,0-2.7,0.2-4.3-1.8c-1.5-1.9-1.6-2.8-0.5-3.3c1.2-0.6,12.5-2.7,20.3-2.4c0,0,2.7-0.3,5,4.4
			C-0.6,74.7,0.5,76.6-1.4,77.1C-1.4,77.1-1.4,77.1-1.4,77.1z M-30.6,95.9c-1,2.3-3.6,4.8-6.9,3.3c-3.3-1.5-8.4-12-8.4-12
			s-1.9-3.9-2.3-3.8c0,0-0.4-0.8-0.7,3.5c-0.3,4.3,0.1,12.5-1.6,13.8c-1.6,1.3-3.6,0.8-4.6-0.7c-0.9-1.5-1.3-5.1-0.8-11.4
			c0.6-6.3,2.1-13,3.9-15.1c1.9-2.1,3.4-0.6,4,0c0,0,2.5,2.3,6.6,8.9l0.7,1.2c0,0,3.8,6.3,4.2,6.3c0,0,0.3,0.3,0.6,0.1
			c0.4-0.1,0.2-2.1,0.2-2.1s-0.8-6.8-4.2-18.4c-0.3-0.9-0.4-1.9-0.2-2.8c0.3-1.4,1.7-0.7,1.7-0.7s5.3,2.7,7.9,11.3
			C-27.8,85.8-29.6,93.6-30.6,95.9C-30.6,95.9-30.6,95.9-30.6,95.9z M26.5,90.8c-2.4,4.2-9.2,13-18.3,10.9c-3,7.2-5.5,14.6-6.9,25.5
			c0,0-0.3,2.1-2.1,1.4c-1.8-0.6-4.6-3.5-5.2-7.6c-0.6-5.3,1.7-14.2,6.6-24.5C-0.9,94.2-1.9,91-1,86.3c0,0,1.2-8.6,9.9-16.4
			c0,0,1-0.9,1.6-0.6c0.7,0.3,0.4,3.1-0.2,4.5c-0.5,1.4-4.4,8-4.4,8s-2.4,4.5-1.7,8.1c4.6-7,14.9-21.1,21.3-16.6
			c2.2,1.5,3.2,4.9,3.2,8.5C28.7,84.9,27.9,88.3,26.5,90.8C26.5,90.8,26.5,90.8,26.5,90.8z M24.6,79.7c0,0-0.4-2.8-3.1,0.3
			c-2.3,2.6-6.6,7.4-10,14c3.6-0.4,7-2.3,8-3.3C21.3,89.2,25.3,85.1,24.6,79.7L24.6,79.7z M76.4,79.1H59.8c-0.3-5.6-1-11.2-2.1-16.8
			c-0.1-0.6-0.6-1-1.2-1h-3.8c-0.3,0-0.7,0.2-0.9,0.4c-0.2,0.3-0.3,0.6-0.2,0.9c1.1,5.4,1.8,10.9,2.1,16.4h-16c-0.4,0-0.7,0.1-1,0.4
			c-0.3,0.2-0.4,0.6-0.4,1v3.4c0,0.4,0.1,0.7,0.4,1c0.3,0.3,0.6,0.4,1,0.4h16.2c0,0.9,0,1.6,0,2.3c0,4.6-0.2,9.1-0.7,13.7
			c0,0.4,0.1,0.7,0.3,1c0.2,0.3,0.6,0.4,0.9,0.4H58c0.7,0,1.3-0.5,1.3-1.2c0.5-4.6,0.7-9.2,0.7-13.8c0-0.7,0-1.5,0-2.3h16.4
			c0.4,0,0.7-0.1,1-0.4c0.3-0.3,0.4-0.6,0.4-1v-3.4c0-0.4-0.1-0.7-0.4-1C77.1,79.2,76.8,79.1,76.4,79.1L76.4,79.1L76.4,79.1z">
   </path>
   <radialGradient id="SVGID_1_" cx="6.3748" cy="107.7256" r="11.9646" gradientTransform="matrix(16.0216 0 0 -16.0203 -49.9373 1780.5675)" gradientUnits="userSpaceOnUse">
    <stop offset="1.000000e-02" style="stop-color:#FFFFFF">
    </stop>
    <stop offset="4.000000e-02" style="stop-color:#C6FFFF">
    </stop>
    <stop offset="9.000000e-02" style="stop-color:#80FFFF">
    </stop>
    <stop offset="0.13" style="stop-color:#49FFFF">
    </stop>
    <stop offset="0.17" style="stop-color:#21FFFF">
    </stop>
    <stop offset="0.2" style="stop-color:#09FFFF">
    </stop>
    <stop offset="0.22" style="stop-color:#00FFFF">
    </stop>
    <stop offset="0.28" style="stop-color:#01F6FF;stop-opacity:0.96">
    </stop>
    <stop offset="0.39" style="stop-color:#04DEFF;stop-opacity:0.87">
    </stop>
    <stop offset="0.53" style="stop-color:#08B6FF;stop-opacity:0.71">
    </stop>
    <stop offset="0.69" style="stop-color:#0E7FFF;stop-opacity:0.5">
    </stop>
    <stop offset="0.87" style="stop-color:#1639FF;stop-opacity:0.22">
    </stop>
    <stop offset="1" style="stop-color:#1C00FF;stop-opacity:0">
    </stop>
   </radialGradient>
   <path class="st1" d="M55.5,53.2C39.5,14.1,3.2-13-38.9-17.3C-81.1-21.5-122.1-2.2-145.6,33c-0.2,0.3-0.3,0.8-0.2,1.2
			c0.1,0.4,0.4,0.7,0.8,0.8l3,1c0.2,0.1,0.4,0.1,0.5,0.1c0.5,0,1.1-0.3,1.4-0.7C-119.8,5.7-86.3-12-50.4-12c43.5,0,82.8,26,99.7,66
			c0.2,0.6,0.8,1,1.4,1h3.6c0.4,0,0.8-0.2,1-0.5C55.6,54,55.6,53.6,55.5,53.2z">
   </path>
  </g>
  <path class="st0" d="M268.5,63.4c5.6,0,10.2,2.1,13.2,6.4h0.1v-5.3h7.1v38h-7.1v-5.9h-0.1c-2.7,4.5-7.5,6.9-12.9,6.9
		c-11.1,0-20.2-8.4-20.2-19.3C248.6,71.9,257.3,63.4,268.5,63.4L268.5,63.4z M155.2,63.4c10.5,0,20.4,8.2,20.2,20.3
		c-0.1,10.3-9,20-21.5,19.7c-10.6-0.3-19.6-9.4-19.5-20.1C134.5,71.9,143.6,63.4,155.2,63.4z M212.6,63.4c6.3,0,11.4,4.4,11.7,11.1
		h-7.1c-0.3-2.7-1.9-4.6-4.9-4.6c-2.7,0-4.5,1.8-4.5,4c0,3.2,3.3,4.2,7.1,5.3c5.3,1.6,10.3,4.9,10.3,11.9c0,7.3-5.3,12.1-12.7,12.1
		c-6.9,0-13.4-4.7-13.4-13.4h7.1c0.3,4.6,2.7,6.9,6.4,6.9c3.3,0,5.5-2.1,5.5-5.2c0-2.6-2-4.3-6.4-5.8c-9.3-2.9-10.9-7-10.9-11.3
		C200.7,67.9,206.4,63.4,212.6,63.4z M94.1,51.7c3.9,0,7.1,3.2,7.1,7.1v9.7h0.1c2.3-3.4,5.9-5.1,10.6-5.1c9,0,15.8,5.8,15.8,16.2
		v22.8h-7.1V81.8c0-8.2-3.2-11.9-9.5-11.9c-6.2,0-10,4.5-10,11.9v20.6h-7.1L94.1,51.7L94.1,51.7z M190.6,51.7v12.7h6.2V71h-6.2v31.5
		c-3.9,0-7.1-3.2-7.1-7.1V71h-2.9v-6.5h2.9V51.7L190.6,51.7L190.6,51.7z M240.1,51.7v12.7h6.2V71h-6.2v31.5c-3.9,0-7.1-3.2-7.1-7.1
		V71H230v-6.5h2.9V51.7L240.1,51.7L240.1,51.7z M314.5,63.4v7.3c-6.2,0.2-9.3,4-9.3,10.3v14.2c0,3.9-3.2,7.1-7.1,7.1v-38h6.6v3.4
		h0.1C306.6,65.3,309.5,63.7,314.5,63.4L314.5,63.4z M154.8,69.9c-8.2,0-15.1,7.9-12.9,16.8c1.5,6,7,10.3,13.1,10.2
		c7.3-0.2,13.2-6,13.2-13.6C168.2,75.9,162.3,69.9,154.8,69.9L154.8,69.9z M268.7,69.9c-7.5,0-13.6,6.8-12.9,14.8
		c0.6,6.6,6,12,12.6,12.1c7.5,0.2,13.5-6.1,13.5-13.4C281.9,76.1,276.6,69.9,268.7,69.9z">
  </path>
 </g>
</svg>